<svg width="35" height="35" viewBox="0 0 35 35" fill="none" xmlns="http://www.w3.org/2000/svg">
<path d="M17.5 24.7917C16.7265 24.7917 15.9846 24.4844 15.4376 23.9374C14.8906 23.3904 14.5833 22.6485 14.5833 21.875C14.5833 20.2562 15.8812 18.9583 17.5 18.9583C18.2735 18.9583 19.0154 19.2656 19.5624 19.8126C20.1094 20.3596 20.4167 21.1015 20.4167 21.875C20.4167 22.6485 20.1094 23.3904 19.5624 23.9374C19.0154 24.4844 18.2735 24.7917 17.5 24.7917ZM26.25 29.1667V14.5833H8.75V29.1667H26.25ZM26.25 11.6667C27.0235 11.6667 27.7654 11.974 28.3124 12.5209C28.8594 13.0679 29.1667 13.8098 29.1667 14.5833V29.1667C29.1667 29.9402 28.8594 30.6821 28.3124 31.2291C27.7654 31.776 27.0235 32.0833 26.25 32.0833H8.75C7.97645 32.0833 7.23458 31.776 6.6876 31.2291C6.14062 30.6821 5.83333 29.9402 5.83333 29.1667V14.5833C5.83333 12.9646 7.13125 11.6667 8.75 11.6667H10.2083V8.75C10.2083 6.81613 10.9766 4.96146 12.344 3.59401C13.7115 2.22656 15.5661 1.45833 17.5 1.45833C18.4576 1.45833 19.4057 1.64694 20.2904 2.01338C21.1751 2.37982 21.9789 2.91692 22.656 3.59401C23.3331 4.27111 23.8702 5.07493 24.2366 5.9596C24.6031 6.84426 24.7917 7.79244 24.7917 8.75V11.6667H26.25ZM17.5 4.375C16.3397 4.375 15.2269 4.83594 14.4064 5.65641C13.5859 6.47688 13.125 7.58968 13.125 8.75V11.6667H21.875V8.75C21.875 7.58968 21.4141 6.47688 20.5936 5.65641C19.7731 4.83594 18.6603 4.375 17.5 4.375Z" fill="black"/>
</svg>
