<svg width="33" height="36" viewBox="0 0 33 36" fill="none" xmlns="http://www.w3.org/2000/svg">
<path fill-rule="evenodd" clip-rule="evenodd" d="M20.625 10.125C20.625 11.3185 20.1904 12.4631 19.4168 13.307C18.6432 14.1509 17.594 14.625 16.5 14.625C15.406 14.625 14.3568 14.1509 13.5832 13.307C12.8096 12.4631 12.375 11.3185 12.375 10.125C12.375 8.93153 12.8096 7.78693 13.5832 6.94302C14.3568 6.09911 15.406 5.625 16.5 5.625C17.594 5.625 18.6432 6.09911 19.4168 6.94302C20.1904 7.78693 20.625 8.93153 20.625 10.125ZM23.7188 10.125C23.7188 12.2136 22.9582 14.2166 21.6044 15.6935C20.2506 17.1703 18.4145 18 16.5 18C14.5855 18 12.7494 17.1703 11.3956 15.6935C10.0418 14.2166 9.28125 12.2136 9.28125 10.125C9.28125 8.03642 10.0418 6.03338 11.3956 4.55653C12.7494 3.07969 14.5855 2.25 16.5 2.25C18.4145 2.25 20.2506 3.07969 21.6044 4.55653C22.9582 6.03338 23.7187 8.03642 23.7188 10.125ZM5.15625 28.125C5.15625 27.666 5.61 26.3048 7.87875 24.8423C9.97837 23.49 13.035 22.5 16.5 22.5C19.965 22.5 23.0216 23.49 25.1213 24.8423C27.39 26.3048 27.8438 27.666 27.8438 28.125C27.8438 28.7217 27.6265 29.294 27.2397 29.716C26.8529 30.1379 26.3283 30.375 25.7812 30.375H7.21875C6.67174 30.375 6.14714 30.1379 5.76034 29.716C5.37355 29.294 5.15625 28.7217 5.15625 28.125ZM16.5 19.125C8.55938 19.125 2.0625 23.625 2.0625 28.125C2.0625 29.6168 2.60575 31.0476 3.57273 32.1025C4.53972 33.1574 5.85123 33.75 7.21875 33.75H25.7812C27.1488 33.75 28.4603 33.1574 29.4273 32.1025C30.3943 31.0476 30.9375 29.6168 30.9375 28.125C30.9375 23.625 24.4406 19.125 16.5 19.125Z" fill="black"/>
</svg>
